<svg width="13" height="17" viewBox="0 0 13 17" fill="none" xmlns="http://www.w3.org/2000/svg">
                    <path d="M0.399902 1.67647C0.399902 1.02706 0.916728 0.5 1.55353 0.5H6.16804C6.97019 0.500629 7.75681 0.725604 8.44231 1.15044C9.1278 1.57528 9.68591 2.18372 10.0559 2.90953C10.4259 3.63535 10.5936 4.45075 10.5408 5.26702C10.488 6.08328 10.2166 6.86913 9.75629 7.53906C10.7044 7.99577 11.4717 8.76815 11.9318 9.729C12.392 10.6898 12.5175 11.7818 12.2878 12.8252C12.058 13.8685 11.4867 14.8009 10.6679 15.4689C9.84912 16.1369 8.83167 16.5005 7.78312 16.5H1.55353C0.916728 16.5 0.399902 15.9729 0.399902 15.3235V1.67647ZM2.70716 9.44118V14.1471H7.78312C8.39504 14.1471 8.9819 13.8992 9.4146 13.4579C9.84729 13.0166 10.0904 12.4182 10.0904 11.7941C10.0904 11.1701 9.84729 10.5716 9.4146 10.1303C8.9819 9.68907 8.39504 9.44118 7.78312 9.44118H2.70716ZM2.70716 7.08824H6.16896C6.7197 7.08811 7.24782 6.86488 7.63716 6.46766C8.0265 6.07043 8.24516 5.53175 8.24503 4.97012C8.24491 4.40848 8.02602 3.8699 7.63651 3.47285C7.24699 3.07581 6.71877 2.85282 6.16804 2.85294H2.70716V7.08824Z" fill="#4D5761" />
                </svg>