<svg width="15" height="17" viewBox="0 0 15 17" fill="none" xmlns="http://www.w3.org/2000/svg">
            <path d="M13.3983 0.504051H7.313C7.18615 0.492224 7.05816 0.506364 6.93724 0.545565C6.81633 0.584765 6.70515 0.648161 6.61085 0.731685C6.51655 0.815209 6.44121 0.917018 6.38965 1.03058C6.33809 1.14415 6.31146 1.26696 6.31146 1.39114C6.31146 1.51532 6.33809 1.63813 6.38965 1.7517C6.44121 1.86526 6.51655 1.96707 6.61085 2.05059C6.70515 2.13412 6.81633 2.19751 6.93724 2.23671C7.05816 2.27591 7.18615 2.29005 7.313 2.27823H9.08371L3.99603 14.7218H1.80135C1.6745 14.7099 1.54651 14.7241 1.42559 14.7633C1.30468 14.8025 1.1935 14.8659 1.0992 14.9494C1.0049 15.0329 0.929556 15.1347 0.877997 15.2483C0.826438 15.3619 0.799805 15.4847 0.799805 15.6089C0.799805 15.733 0.826438 15.8559 0.877997 15.9694C0.929556 16.083 1.0049 16.1848 1.0992 16.2683C1.1935 16.3518 1.30468 16.4152 1.42559 16.4544C1.54651 16.4936 1.6745 16.5078 1.80135 16.496H7.89492C8.02177 16.5078 8.14976 16.4936 8.27068 16.4544C8.39159 16.4152 8.50277 16.3518 8.59707 16.2683C8.69137 16.1848 8.76671 16.083 8.81827 15.9694C8.86983 15.8559 8.89646 15.733 8.89646 15.6089C8.89646 15.4847 8.86983 15.3619 8.81827 15.2483C8.76671 15.1347 8.69137 15.0329 8.59707 14.9494C8.50277 14.8659 8.39159 14.8025 8.27068 14.7633C8.14976 14.7241 8.02177 14.7099 7.89492 14.7218H5.9912L11.0872 2.27823H13.3983C13.5251 2.29005 13.6531 2.27591 13.774 2.23671C13.8949 2.19751 14.0061 2.13412 14.1004 2.05059C14.1947 1.96707 14.2701 1.86526 14.3216 1.7517C14.3732 1.63813 14.3998 1.51532 14.3998 1.39114C14.3998 1.26696 14.3732 1.14415 14.3216 1.03058C14.2701 0.917018 14.1947 0.815209 14.1004 0.731685C14.0061 0.648161 13.8949 0.584765 13.774 0.545565C13.6531 0.506364 13.5251 0.492224 13.3983 0.504051Z" fill="#4D5761" />
        </svg>