<svg width="519" height="110" viewBox="0 0 519 110" fill="none" xmlns="http://www.w3.org/2000/svg">
<path d="M86.6 109.42H12.28C5.5 109.42 0 103.92 0 97.14V22.82C0 16.04 5.5 10.54 12.28 10.54H86.6C93.38 10.54 98.88 16.04 98.88 22.82V97.14C98.88 103.92 93.38 109.42 86.6 109.42Z" fill="#6B29FF"/>
<path d="M85.19 59.91C85.19 61.87 85.03 63.78 84.73 65.65C84.6 66.45 84.45 67.25 84.27 68.04C82.73 68.42 81.19 68.81 79.65 69.18C79.16 69.3 78.89 69.51 78.7 69.99C78.21 71.28 77.68 72.56 77.11 73.82C76.91 74.26 76.94 74.58 77.19 74.99C78.03 76.35 78.85 77.73 79.68 79.11C76.87 83.57 73.12 87.37 68.69 90.23C67.29 89.4 65.89 88.56 64.48 87.75C64.22 87.6 63.77 87.59 63.48 87.7C62.12 88.24 60.78 88.85 59.42 89.4V82.56C66.34 79.42 71.55 73.2 73.32 65.65H59.03V53.65H84.62C84.99 55.68 85.19 57.77 85.19 59.91Z" fill="black"/>
<path d="M39.38 82.75C30.58 78.96 24.41 70.21 24.39 60.02C24.37 46.33 35.45 35.21 49.14 35.18C59.16 35.16 67.8 41.1 71.72 49.65H78.57C78.07 48.38 77.5 47.15 77.01 45.88C76.89 45.57 76.9 45.09 77.06 44.8C77.87 43.4 78.69 42.01 79.53 40.63C76.68 36.16 72.87 32.37 68.39 29.54C67.01 30.36 65.63 31.18 64.27 32.03C63.86 32.28 63.53 32.29 63.09 32.09C61.8 31.51 60.51 30.97 59.19 30.46C58.7 30.27 58.5 30 58.38 29.51C58.01 27.97 57.63 26.43 57.25 24.89C54.63 24.29 51.91 23.96 49.11 23.97C46.31 23.97 43.6 24.31 40.99 24.92C40.61 26.46 40.23 28 39.87 29.55C39.75 30.04 39.54 30.31 39.06 30.5C37.63 31.07 36.23 31.72 34.79 32.29C34.48 32.41 34 32.4 33.72 32.24C32.33 31.44 30.95 30.62 29.57 29.79C25.07 32.72 21.26 36.62 18.45 41.21C19.29 42.62 20.13 44.02 20.99 45.42C21.22 45.8 21.24 46.1 21.06 46.52C20.55 47.66 20.08 48.82 19.65 49.99C19.48 50.45 19.22 50.65 18.76 50.76C17.2 51.14 15.65 51.53 14.1 51.92C13.5 54.53 13.18 57.25 13.18 60.04C13.18 62.84 13.52 65.55 14.13 68.17C15.68 68.55 17.23 68.93 18.78 69.3C19.28 69.42 19.53 69.65 19.72 70.12C20.25 71.48 20.82 72.83 21.43 74.16C21.62 74.58 21.6 74.87 21.37 75.25C20.53 76.63 19.71 78.02 18.88 79.4C21.71 83.81 25.48 87.57 29.91 90.38C31.27 89.57 32.62 88.76 33.96 87.92C34.43 87.63 34.79 87.64 35.27 87.86C36.53 88.43 37.81 88.96 39.1 89.46C39.21 89.5 39.3 89.55 39.39 89.6V82.75H39.38Z" fill="url(#paint0_linear_1973_3811)"/>
<mask id="mask0_1973_3811" style="mask-type:luminance" maskUnits="userSpaceOnUse" x="59" y="53" width="27" height="38">
<path d="M85.19 59.91C85.19 61.87 85.03 63.78 84.73 65.65C84.6 66.45 84.45 67.25 84.27 68.04C82.73 68.42 81.19 68.81 79.65 69.18C79.16 69.3 78.89 69.51 78.7 69.99C78.21 71.28 77.68 72.56 77.11 73.82C76.91 74.26 76.94 74.58 77.19 74.99C78.03 76.35 78.85 77.73 79.68 79.11C76.87 83.57 73.12 87.37 68.69 90.23C67.29 89.4 65.89 88.56 64.48 87.75C64.22 87.6 63.77 87.59 63.48 87.7C62.12 88.24 60.78 88.85 59.42 89.4V82.56C66.34 79.42 71.55 73.2 73.32 65.65H59.03V53.65H84.62C84.99 55.68 85.19 57.77 85.19 59.91Z" fill="white"/>
</mask>
<g mask="url(#mask0_1973_3811)">
<path d="M93.35 46.24H54.11V92.88H93.35V46.24Z" fill="#2970FF"/>
<path d="M90.62 83.25H56.96V90.12H90.62V83.25Z" fill="#90FF26"/>
<g opacity="0.8">
<path d="M90.62 52.92H56.96V54.67H90.62V52.92Z" fill="white"/>
</g>
<g opacity="0.8">
<path d="M90.62 75.44H56.96V77.19H90.62V75.44Z" fill="white"/>
</g>
<g opacity="0.8">
<path d="M66.79 56.68H56.96V58.43H66.79V56.68Z" fill="white"/>
</g>
<g opacity="0.8">
<path d="M83.99 56.68H67.54V58.43H83.99V56.68Z" fill="white"/>
</g>
<g opacity="0.8">
<path d="M90.62 56.68H84.74V58.43H90.62V56.68Z" fill="white"/>
</g>
<g opacity="0.8">
<path d="M64.57 71.69H56.96V73.44H64.57V71.69Z" fill="white"/>
</g>
<g opacity="0.8">
<path d="M90.61 71.69H65.31V73.44H90.61V71.69Z" fill="white"/>
</g>
<g opacity="0.8">
<path d="M70.09 79.2H56.96V80.95H70.09V79.2Z" fill="white"/>
</g>
<g opacity="0.8">
<path d="M76.91 67.94H56.96V69.69H76.91V67.94Z" fill="white"/>
</g>
<g opacity="0.8">
<path d="M90.62 67.94H77.66V69.69H90.62V67.94Z" fill="white"/>
</g>
<g opacity="0.8">
<path d="M90.62 64.18H69.57V65.93H90.62V64.18Z" fill="white"/>
</g>
<g opacity="0.8">
<path d="M68.82 64.18H56.96V65.93H68.82V64.18Z" fill="white"/>
</g>
<g opacity="0.8">
<path d="M72.92 60.43H56.96V62.18H72.92V60.43Z" fill="white"/>
</g>
<g opacity="0.8">
<path d="M86.67 60.43H73.67V62.18H86.67V60.43Z" fill="white"/>
</g>
</g>
<path d="M49.6 92.7C49.06 92.69 48.69 92.33 48.72 91.87C48.76 91.36 49.08 91.11 49.58 91.1H55.45C55.47 90.36 55.48 89.63 55.5 88.82C55.28 88.84 55.04 88.88 54.81 88.89C53.71 88.89 52.61 88.9 51.51 88.88C50.98 88.87 50.67 88.55 50.67 88.08C50.68 87.65 51.02 87.32 51.53 87.29C51.74 87.28 51.96 87.29 52.18 87.29C53.3 87.29 54.43 87.3 55.41 87.3C55.42 86.52 55.43 85.81 55.45 85.04C54.61 85.06 53.73 85.08 52.85 85.08C52.15 85.09 51.76 84.89 51.65 84.51C51.63 84.43 51.6 84.36 51.6 84.27C51.61 83.72 51.97 83.48 52.81 83.48H53.4C54.12 83.49 54.84 83.51 55.46 83.52C55.48 82.72 55.49 82.05 55.5 81.32C54.04 81.33 52.57 81.33 51.1 81.34C50.57 81.34 50.04 81.35 49.51 81.33C49.03 81.31 48.73 81.03 48.73 80.55C48.72 80.07 49.02 79.8 49.5 79.75C49.69 79.74 49.89 79.75 50.08 79.75C51.9 79.75 53.72 79.75 55.64 79.76C55.62 79.09 55.6 78.48 55.57 77.87C55.57 77.78 55.56 77.69 55.53 77.43C55.13 77.47 54.74 77.53 54.36 77.54C53.45 77.55 52.55 77.55 51.65 77.54C51.02 77.53 50.68 77.25 50.68 76.75C50.67 76.27 51.04 75.96 51.63 75.94H52.28C53.37 75.95 54.46 75.95 55.44 75.96C55.47 75.18 55.5 74.47 55.52 73.68C54.73 73.7 53.95 73.72 53.16 73.73C52.97 73.74 52.77 73.74 52.58 73.73C51.98 73.72 51.61 73.42 51.6 72.94C51.6 72.45 51.96 72.14 52.56 72.13H55.41V53.65H32.03V65.65H43.31V95.44C46.06 95.88 48.86 96 51.64 95.8C51.63 95.75 51.6 95.7 51.6 95.65C51.6 95.11 51.95 94.84 52.67 94.84C53.63 94.84 54.59 94.85 55.52 94.85C55.52 94.1 55.52 93.42 55.53 92.7H52.9C51.8 92.7 50.7 92.71 49.6 92.7ZM47.25 58.35C48.47 57.14 50.47 57.16 51.68 58.39C52.9 59.64 52.87 61.61 51.63 62.84C50.39 64.07 48.44 64.05 47.21 62.79C46 61.56 46.01 59.57 47.25 58.35Z" fill="url(#paint1_linear_1973_3811)"/>
<path d="M154.02 77.05C152.17 79.27 149.55 80.99 146.17 82.21C142.79 83.43 139.04 84.04 134.92 84.04C130.6 84.04 126.81 83.1 123.55 81.21C120.29 79.32 117.78 76.59 116 72.99C114.23 69.4 113.32 65.18 113.27 60.33V56.93C113.27 51.95 114.11 47.63 115.79 43.98C117.47 40.33 119.89 37.54 123.06 35.61C126.23 33.68 129.94 32.71 134.19 32.71C140.11 32.71 144.74 34.12 148.08 36.95C151.42 39.78 153.4 43.88 154.01 49.28H144C143.54 46.42 142.53 44.33 140.96 43C139.39 41.67 137.24 41.01 134.49 41.01C130.99 41.01 128.33 42.33 126.5 44.96C124.67 47.59 123.74 51.5 123.72 56.69V59.88C123.72 65.12 124.72 69.07 126.7 71.75C128.68 74.43 131.61 75.76 135.45 75.76C139.31 75.76 142.07 74.94 143.72 73.29V64.68H134.36V57.1H154.01V77.05H154.02Z" fill="#4D4D4D"/>
<path d="M160.16 64.46C160.16 60.78 160.87 57.5 162.29 54.62C163.71 51.74 165.75 49.51 168.41 47.93C171.07 46.35 174.17 45.56 177.69 45.56C182.7 45.56 186.78 47.09 189.95 50.16C193.12 53.22 194.88 57.39 195.25 62.65L195.32 65.19C195.32 70.88 193.73 75.45 190.55 78.89C187.37 82.33 183.11 84.05 177.76 84.05C172.41 84.05 168.14 82.34 164.95 78.91C161.76 75.48 160.16 70.81 160.16 64.91V64.46ZM170.07 65.16C170.07 68.69 170.73 71.38 172.06 73.25C173.39 75.12 175.28 76.05 177.75 76.05C180.15 76.05 182.03 75.13 183.38 73.29C184.73 71.45 185.4 68.5 185.4 64.44C185.4 60.98 184.73 58.3 183.38 56.4C182.03 54.5 180.13 53.55 177.69 53.55C175.27 53.55 173.39 54.49 172.07 56.38C170.74 58.27 170.07 61.2 170.07 65.16Z" fill="#4D4D4D"/>
<path d="M199.88 64.46C199.88 60.78 200.59 57.5 202.01 54.62C203.43 51.74 205.47 49.51 208.13 47.93C210.79 46.35 213.89 45.56 217.41 45.56C222.42 45.56 226.5 47.09 229.67 50.16C232.84 53.23 234.6 57.39 234.97 62.65L235.04 65.19C235.04 70.88 233.45 75.45 230.27 78.89C227.09 82.33 222.83 84.05 217.48 84.05C212.13 84.05 207.86 82.34 204.67 78.91C201.48 75.48 199.88 70.81 199.88 64.91V64.46ZM209.79 65.16C209.79 68.69 210.45 71.38 211.78 73.25C213.11 75.12 215 76.05 217.47 76.05C219.87 76.05 221.75 75.13 223.09 73.29C224.43 71.45 225.11 68.5 225.11 64.44C225.11 60.98 224.44 58.3 223.09 56.4C221.74 54.5 219.84 53.55 217.4 53.55C214.97 53.55 213.1 54.49 211.77 56.38C210.46 58.27 209.79 61.2 209.79 65.16Z" fill="#4D4D4D"/>
<path d="M239.6 64.53C239.6 58.74 240.9 54.14 243.49 50.71C246.08 47.28 249.64 45.56 254.14 45.56C257.75 45.56 260.74 46.91 263.09 49.61V30.67H273.04V83.36H264.09L263.61 79.42C261.14 82.51 257.96 84.05 254.07 84.05C249.7 84.05 246.2 82.33 243.56 78.89C240.92 75.44 239.6 70.65 239.6 64.53ZM249.52 65.26C249.52 68.74 250.13 71.41 251.34 73.26C252.55 75.12 254.31 76.04 256.62 76.04C259.68 76.04 261.84 74.75 263.1 72.16V57.5C261.87 54.91 259.73 53.62 256.69 53.62C251.91 53.62 249.52 57.5 249.52 65.26Z" fill="#4D4D4D"/>
<path d="M318.98 41.75H303.68V83.36H293.39V41.75H278.3V33.42H318.98V41.75Z" fill="#4D4D4D"/>
<path d="M315.51 64.46C315.51 60.78 316.22 57.5 317.64 54.62C319.06 51.74 321.1 49.51 323.76 47.93C326.42 46.35 329.52 45.56 333.04 45.56C338.05 45.56 342.13 47.09 345.3 50.16C348.47 53.22 350.23 57.39 350.6 62.65L350.67 65.19C350.67 70.88 349.08 75.45 345.9 78.89C342.72 82.33 338.46 84.05 333.11 84.05C327.76 84.05 323.49 82.34 320.3 78.91C317.11 75.48 315.51 70.81 315.51 64.91V64.46ZM325.42 65.16C325.42 68.69 326.08 71.38 327.41 73.25C328.74 75.12 330.63 76.05 333.1 76.05C335.5 76.05 337.38 75.13 338.72 73.29C340.07 71.45 340.74 68.5 340.74 64.44C340.74 60.98 340.07 58.3 338.72 56.4C337.37 54.5 335.47 53.55 333.03 53.55C330.61 53.55 328.73 54.49 327.4 56.38C326.07 58.27 325.42 61.2 325.42 65.16Z" fill="#4D4D4D"/>
<path d="M355.23 64.46C355.23 60.78 355.94 57.5 357.36 54.62C358.78 51.74 360.82 49.51 363.48 47.93C366.14 46.35 369.24 45.56 372.76 45.56C377.77 45.56 381.85 47.09 385.02 50.16C388.19 53.22 389.95 57.39 390.32 62.65L390.39 65.19C390.39 70.88 388.8 75.45 385.62 78.89C382.44 82.33 378.18 84.05 372.83 84.05C367.48 84.05 363.21 82.34 360.02 78.91C356.83 75.48 355.23 70.81 355.23 64.91V64.46ZM365.14 65.16C365.14 68.69 365.8 71.38 367.13 73.25C368.46 75.12 370.35 76.05 372.82 76.05C375.22 76.05 377.1 75.13 378.44 73.29C379.79 71.45 380.46 68.5 380.46 64.44C380.46 60.98 379.79 58.3 378.44 56.4C377.09 54.5 375.19 53.55 372.75 53.55C370.33 53.55 368.45 54.49 367.12 56.38C365.79 58.27 365.14 61.2 365.14 65.16Z" fill="#4D4D4D"/>
<path d="M406.96 83.36H397.01V30.67H406.96V83.36Z" fill="#4D4D4D"/>
<path d="M435.22 73.1C435.22 71.89 434.62 70.93 433.42 70.24C432.22 69.54 430.29 68.92 427.64 68.37C418.81 66.52 414.4 62.77 414.4 57.12C414.4 53.83 415.77 51.08 418.5 48.87C421.23 46.66 424.8 45.56 429.22 45.56C433.93 45.56 437.7 46.67 440.52 48.89C443.34 51.11 444.76 53.99 444.76 57.53H434.85C434.85 56.11 434.39 54.94 433.48 54.01C432.57 53.08 431.14 52.62 429.19 52.62C427.52 52.62 426.23 53 425.31 53.75C424.39 54.5 423.94 55.46 423.94 56.63C423.94 57.73 424.46 58.61 425.5 59.29C426.54 59.96 428.3 60.55 430.77 61.04C433.24 61.53 435.32 62.09 437.01 62.7C442.25 64.62 444.87 67.95 444.87 72.68C444.87 76.06 443.42 78.8 440.51 80.9C437.61 82.99 433.86 84.04 429.26 84.04C426.15 84.04 423.39 83.49 420.98 82.38C418.57 81.27 416.67 79.75 415.3 77.82C413.93 75.89 413.24 73.8 413.24 71.56H422.64C422.73 73.32 423.38 74.67 424.6 75.61C425.82 76.55 427.43 77.02 429.47 77.02C431.37 77.02 432.8 76.66 433.77 75.94C434.74 75.21 435.22 74.27 435.22 73.1Z" fill="#4D4D4D"/>
<path d="M502.17 39.81H462.59C453.29 39.81 445.76 32.27 445.76 22.98V16.83C445.76 7.53 453.3 0 462.59 0H502.17C511.47 0 519 7.54 519 16.83V22.98C519 32.27 511.46 39.81 502.17 39.81Z" fill="url(#paint2_linear_1973_3811)"/>
<path d="M470.72 25.24C471.27 25.24 471.69 25.39 471.99 25.7C472.29 26.01 472.44 26.4 472.44 26.86C472.44 27.32 472.29 27.7 471.99 28C471.69 28.3 471.27 28.45 470.72 28.45C470.2 28.45 469.78 28.3 469.48 28C469.17 27.7 469.02 27.32 469.02 26.85C469.02 26.38 469.17 26 469.47 25.69C469.76 25.4 470.18 25.24 470.72 25.24Z" fill="white"/>
<path d="M485.91 24.24H479.11L477.69 28.33H474.52L481.16 10.76H483.9L490.55 28.33H487.36L485.91 24.24ZM479.96 21.78H485.05L482.5 14.49L479.96 21.78Z" fill="white"/>
<path d="M495.74 28.33H492.7V10.77H495.74V28.33Z" fill="white"/>
<defs>
<linearGradient id="paint0_linear_1973_3811" x1="13.1837" y1="57.1755" x2="79.5421" y2="57.1755" gradientUnits="userSpaceOnUse">
<stop stop-color="white"/>
<stop offset="1" stop-color="#29F7FF"/>
</linearGradient>
<linearGradient id="paint1_linear_1973_3811" x1="58.6283" y1="92.2891" x2="38.1577" y2="53.1126" gradientUnits="userSpaceOnUse">
<stop stop-color="#29F7FF"/>
<stop offset="1" stop-color="#2970FF"/>
</linearGradient>
<linearGradient id="paint2_linear_1973_3811" x1="478.516" y1="0.6008" x2="489.498" y2="55.5097" gradientUnits="userSpaceOnUse">
<stop stop-color="#6B29FF"/>
<stop offset="1" stop-color="#B797FF"/>
</linearGradient>
</defs>
</svg>
