<?xml version="1.0" encoding="utf-8"?>
<!-- Generator: Adobe Illustrator 27.0.0, SVG Export Plug-In . SVG Version: 6.00 Build 0)  -->
<svg version="1.1" id="Layer_1" xmlns="http://www.w3.org/2000/svg" xmlns:xlink="http://www.w3.org/1999/xlink" x="0px" y="0px"
	 viewBox="0 0 598 166" style="enable-background:new 0 0 598 166;" xml:space="preserve">
<style type="text/css">
	.st0{fill:#6B29FF;}
	.st1{fill:none;}
	.st2{fill:url(#SVGID_1_);}
	.st3{clip-path:url(#SVGID_00000139289186865859704000000003742631851006620558_);}
	.st4{fill:#2970FF;}
	.st5{fill:#90FF26;}
	.st6{opacity:0.8;}
	.st7{fill:#FFFFFF;}
	.st8{fill:url(#SVGID_00000093163695951853022950000000451622130774539187_);}
	.st9{fill:#4D4D4D;}
	.st10{fill:url(#SVGID_00000134229813165984377590000005558758538998587799_);}
</style>
<g>
	<g>
		<path class="st0" d="M126.1,137.71H51.78c-6.78,0-12.28-5.5-12.28-12.28V51.11c0-6.78,5.5-12.28,12.28-12.28h74.32
			c6.78,0,12.28,5.5,12.28,12.28v74.32C138.38,132.21,132.88,137.71,126.1,137.71z"/>
		<path d="M124.69,88.2c0,1.96-0.16,3.87-0.46,5.74c-0.13,0.8-0.28,1.6-0.46,2.39c-1.54,0.38-3.08,0.77-4.62,1.14
			c-0.49,0.12-0.76,0.33-0.95,0.81c-0.49,1.29-1.02,2.57-1.59,3.83c-0.2,0.44-0.17,0.76,0.08,1.17c0.84,1.36,1.66,2.74,2.49,4.12
			c-2.81,4.46-6.56,8.26-10.99,11.12c-1.4-0.83-2.8-1.67-4.21-2.48c-0.26-0.15-0.71-0.16-1-0.05c-1.36,0.54-2.7,1.15-4.06,1.7v-6.84
			c6.92-3.14,12.13-9.36,13.9-16.91H98.53v-12h25.59C124.49,83.97,124.69,86.06,124.69,88.2z"/>
		<path class="st1" d="M98.53,81.94h8.33v-4h4.36c-3.92-8.55-12.56-14.48-22.58-14.47C74.95,63.5,63.87,74.62,63.89,88.31
			c0.02,13.69,11.14,24.77,24.83,24.75c11.72-0.02,21.53-8.18,24.09-19.12H98.53V81.94z"/>
		<linearGradient id="SVGID_1_" gradientUnits="userSpaceOnUse" x1="52.6837" y1="85.4655" x2="119.0421" y2="85.4655">
			<stop  offset="0" style="stop-color:#FFFFFF"/>
			<stop  offset="1" style="stop-color:#29F7FF"/>
		</linearGradient>
		<path class="st2" d="M78.88,111.04c-8.8-3.79-14.97-12.54-14.99-22.73C63.87,74.62,74.95,63.5,88.64,63.47
			c10.02-0.02,18.66,5.92,22.58,14.47h6.85c-0.5-1.27-1.07-2.5-1.56-3.77c-0.12-0.31-0.11-0.79,0.05-1.08
			c0.81-1.4,1.63-2.79,2.47-4.17c-2.85-4.47-6.66-8.26-11.14-11.09c-1.38,0.82-2.76,1.64-4.12,2.49c-0.41,0.25-0.74,0.26-1.18,0.06
			c-1.29-0.58-2.58-1.12-3.9-1.63c-0.49-0.19-0.69-0.46-0.81-0.95c-0.37-1.54-0.75-3.08-1.13-4.62c-2.62-0.6-5.34-0.93-8.14-0.92
			c-2.8,0-5.51,0.34-8.12,0.95c-0.38,1.54-0.76,3.08-1.12,4.63c-0.12,0.49-0.33,0.76-0.81,0.95c-1.43,0.57-2.83,1.22-4.27,1.79
			c-0.31,0.12-0.79,0.11-1.07-0.05c-1.39-0.8-2.77-1.62-4.15-2.45c-4.5,2.93-8.31,6.83-11.12,11.42c0.84,1.41,1.68,2.81,2.54,4.21
			c0.23,0.38,0.25,0.68,0.07,1.1c-0.51,1.14-0.98,2.3-1.41,3.47c-0.17,0.46-0.43,0.66-0.89,0.77c-1.56,0.38-3.11,0.77-4.66,1.16
			c-0.6,2.61-0.92,5.33-0.92,8.12c0,2.8,0.34,5.51,0.95,8.13c1.55,0.38,3.1,0.76,4.65,1.13c0.5,0.12,0.75,0.35,0.94,0.82
			c0.53,1.36,1.1,2.71,1.71,4.04c0.19,0.42,0.17,0.71-0.06,1.09c-0.84,1.38-1.66,2.77-2.49,4.15c2.83,4.41,6.6,8.17,11.03,10.98
			c1.36-0.81,2.71-1.62,4.05-2.46c0.47-0.29,0.83-0.28,1.31-0.06c1.26,0.57,2.54,1.1,3.83,1.6c0.11,0.04,0.2,0.09,0.29,0.14V111.04z
			"/>
		<g>
			<defs>
				<path id="SVGID_00000008860330712005137720000002605351387423041431_" d="M124.69,88.2c0,1.96-0.16,3.87-0.46,5.74
					c-0.13,0.8-0.28,1.6-0.46,2.39c-1.54,0.38-3.08,0.77-4.62,1.14c-0.49,0.12-0.76,0.33-0.95,0.81c-0.49,1.29-1.02,2.57-1.59,3.83
					c-0.2,0.44-0.17,0.76,0.08,1.17c0.84,1.36,1.66,2.74,2.49,4.12c-2.81,4.46-6.56,8.26-10.99,11.12c-1.4-0.83-2.8-1.67-4.21-2.48
					c-0.26-0.15-0.71-0.16-1-0.05c-1.36,0.54-2.7,1.15-4.06,1.7v-6.84c6.92-3.14,12.13-9.36,13.9-16.91H98.53v-12h25.59
					C124.49,83.97,124.69,86.06,124.69,88.2z"/>
			</defs>
			<clipPath id="SVGID_00000091706543014560269470000000510436031000287923_">
				<use xlink:href="#SVGID_00000008860330712005137720000002605351387423041431_"  style="overflow:visible;"/>
			</clipPath>
			<g style="clip-path:url(#SVGID_00000091706543014560269470000000510436031000287923_);">
				<g>
					<rect x="93.61" y="74.53" class="st4" width="39.24" height="46.64"/>
				</g>
				<g>
					<rect x="96.46" y="111.54" class="st5" width="33.66" height="6.87"/>
				</g>
				<g>
					<g class="st6">
						<rect x="96.46" y="77.46" class="st7" width="22.16" height="1.75"/>
					</g>
					<g class="st6">
						<rect x="96.46" y="81.21" class="st7" width="33.66" height="1.75"/>
					</g>
					<g class="st6">
						<rect x="96.46" y="103.73" class="st7" width="33.66" height="1.75"/>
					</g>
					<g class="st6">
						<rect x="96.46" y="84.97" class="st7" width="9.83" height="1.75"/>
					</g>
					<g class="st6">
						<rect x="107.04" y="84.97" class="st7" width="16.45" height="1.75"/>
					</g>
					<g class="st6">
						<rect x="124.24" y="84.97" class="st7" width="5.88" height="1.75"/>
					</g>
					<g>
						<g class="st6">
							<rect x="96.46" y="99.98" class="st7" width="7.61" height="1.75"/>
						</g>
						<g class="st6">
							<rect x="104.81" y="99.98" class="st7" width="25.3" height="1.75"/>
						</g>
					</g>
					<g>
						<g class="st6">
							<rect x="96.46" y="107.49" class="st7" width="13.13" height="1.75"/>
						</g>
					</g>
					<g>
						<g class="st6">
							<rect x="96.46" y="96.23" class="st7" width="19.95" height="1.75"/>
						</g>
						<g class="st6">
							<rect x="117.16" y="96.23" class="st7" width="12.96" height="1.75"/>
						</g>
					</g>
					<g>
						<g class="st6">
							<rect x="109.07" y="92.47" class="st7" width="21.05" height="1.75"/>
						</g>
						<g class="st6">
							<rect x="96.46" y="92.47" class="st7" width="11.86" height="1.75"/>
						</g>
					</g>
					<g class="st6">
						<rect x="96.46" y="88.72" class="st7" width="15.96" height="1.75"/>
					</g>
					<g>
						<g class="st6">
							<rect x="113.17" y="88.72" class="st7" width="13" height="1.75"/>
						</g>
					</g>
				</g>
			</g>
		</g>
		<path class="st1" d="M91.39,91.28c1.24-1.22,1.27-3.19,0.05-4.43c-1.21-1.23-3.21-1.25-4.44-0.04c-1.24,1.21-1.25,3.19-0.04,4.43
			C88.2,92.49,90.14,92.5,91.39,91.28z"/>
		
			<linearGradient id="SVGID_00000121986299731560462360000003669437777750538880_" gradientUnits="userSpaceOnUse" x1="98.1283" y1="120.5791" x2="77.6577" y2="81.4026">
			<stop  offset="0" style="stop-color:#29F7FF"/>
			<stop  offset="1" style="stop-color:#2970FF"/>
		</linearGradient>
		<path style="fill:url(#SVGID_00000121986299731560462360000003669437777750538880_);" d="M89.1,120.99
			c-0.54-0.01-0.91-0.37-0.88-0.83c0.04-0.51,0.36-0.76,0.86-0.77h5.87c0.02-0.74,0.03-1.47,0.05-2.28
			c-0.22,0.02-0.46,0.06-0.69,0.07c-1.1,0-2.2,0.01-3.3-0.01c-0.53-0.01-0.84-0.33-0.84-0.8c0.01-0.43,0.35-0.76,0.86-0.79
			c0.21-0.01,0.43,0,0.65,0c1.12,0,2.25,0.01,3.23,0.01c0.01-0.78,0.02-1.49,0.04-2.26c-0.84,0.02-1.72,0.04-2.6,0.04
			c-0.7,0.01-1.09-0.19-1.2-0.57c-0.02-0.08-0.05-0.15-0.05-0.24c0.01-0.55,0.37-0.79,1.21-0.79h0.59c0.72,0.01,1.44,0.03,2.06,0.04
			c0.02-0.8,0.03-1.47,0.04-2.2c-1.46,0.01-2.93,0.01-4.4,0.02c-0.53,0-1.06,0.01-1.59-0.01c-0.48-0.02-0.78-0.3-0.78-0.78
			c-0.01-0.48,0.29-0.75,0.77-0.8c0.19-0.01,0.39,0,0.58,0c1.82,0,3.64,0,5.56,0.01c-0.02-0.67-0.04-1.28-0.07-1.89
			c0-0.09-0.01-0.18-0.04-0.44c-0.4,0.04-0.79,0.1-1.17,0.11c-0.91,0.01-1.81,0.01-2.71,0c-0.63-0.01-0.97-0.29-0.97-0.79
			c-0.01-0.48,0.36-0.79,0.95-0.81h0.65c1.09,0.01,2.18,0.01,3.16,0.02c0.03-0.78,0.06-1.49,0.08-2.28
			c-0.79,0.02-1.57,0.04-2.36,0.05c-0.19,0.01-0.39,0.01-0.58,0c-0.6-0.01-0.97-0.31-0.98-0.79c0-0.49,0.36-0.8,0.96-0.81h2.85
			V81.94H71.53v12h11.28v29.79c2.75,0.44,5.55,0.56,8.33,0.36c-0.01-0.05-0.04-0.1-0.04-0.15c0-0.54,0.35-0.81,1.07-0.81
			c0.96,0,1.92,0.01,2.85,0.01c0-0.75,0-1.43,0.01-2.15H92.4C91.3,120.99,90.2,121,89.1,120.99z M86.75,86.64
			c1.22-1.21,3.22-1.19,4.43,0.04c1.22,1.25,1.19,3.22-0.05,4.45c-1.24,1.23-3.19,1.21-4.42-0.05
			C85.5,89.85,85.51,87.86,86.75,86.64z"/>
	</g>
	<g>
		<path class="st9" d="M193.52,105.34c-1.85,2.22-4.47,3.94-7.85,5.16c-3.38,1.22-7.13,1.83-11.25,1.83
			c-4.32,0-8.11-0.94-11.37-2.83s-5.77-4.62-7.55-8.22c-1.77-3.59-2.68-7.81-2.73-12.66v-3.4c0-4.98,0.84-9.3,2.52-12.95
			s4.1-6.44,7.27-8.37c3.17-1.93,6.88-2.9,11.13-2.9c5.92,0,10.55,1.41,13.89,4.24c3.34,2.83,5.32,6.93,5.93,12.33H183.5
			c-0.46-2.86-1.47-4.95-3.04-6.28s-3.72-1.99-6.47-1.99c-3.5,0-6.16,1.32-7.99,3.95c-1.83,2.63-2.76,6.54-2.78,11.73v3.19
			c0,5.24,1,9.19,2.98,11.87s4.91,4.01,8.75,4.01c3.86,0,6.62-0.82,8.27-2.47v-8.61h-9.36v-7.58h19.65V105.34z"/>
		<path class="st9" d="M199.66,92.75c0-3.68,0.71-6.96,2.13-9.84c1.42-2.88,3.46-5.11,6.12-6.69c2.66-1.58,5.76-2.37,9.28-2.37
			c5.01,0,9.09,1.53,12.26,4.6c3.17,3.06,4.93,7.23,5.3,12.49l0.07,2.54c0,5.69-1.59,10.26-4.77,13.7
			c-3.18,3.44-7.44,5.16-12.79,5.16c-5.35,0-9.62-1.71-12.81-5.14c-3.19-3.43-4.79-8.1-4.79-14V92.75z M209.57,93.45
			c0,3.53,0.66,6.22,1.99,8.09c1.33,1.87,3.22,2.8,5.69,2.8c2.4,0,4.28-0.92,5.63-2.76c1.35-1.84,2.02-4.79,2.02-8.85
			c0-3.46-0.67-6.14-2.02-8.04c-1.35-1.9-3.25-2.85-5.69-2.85c-2.42,0-4.3,0.94-5.62,2.83C210.24,86.56,209.57,89.49,209.57,93.45z"
			/>
		<path class="st9" d="M239.38,92.75c0-3.68,0.71-6.96,2.13-9.84c1.42-2.88,3.46-5.11,6.12-6.69c2.66-1.58,5.76-2.37,9.28-2.37
			c5.01,0,9.09,1.53,12.26,4.6s4.93,7.23,5.3,12.49l0.07,2.54c0,5.69-1.59,10.26-4.77,13.7c-3.18,3.44-7.44,5.16-12.79,5.16
			c-5.35,0-9.62-1.71-12.81-5.14c-3.19-3.43-4.79-8.1-4.79-14V92.75z M249.29,93.45c0,3.53,0.66,6.22,1.99,8.09
			c1.33,1.87,3.22,2.8,5.69,2.8c2.4,0,4.28-0.92,5.62-2.76s2.02-4.79,2.02-8.85c0-3.46-0.67-6.14-2.02-8.04
			c-1.35-1.9-3.25-2.85-5.69-2.85c-2.43,0-4.3,0.94-5.63,2.83C249.96,86.56,249.29,89.49,249.29,93.45z"/>
		<path class="st9" d="M279.1,92.82c0-5.79,1.3-10.39,3.89-13.82c2.59-3.43,6.15-5.15,10.65-5.15c3.61,0,6.6,1.35,8.95,4.05V58.96
			h9.95v52.69h-8.95l-0.48-3.94c-2.47,3.09-5.65,4.63-9.54,4.63c-4.37,0-7.87-1.72-10.51-5.16
			C280.42,103.73,279.1,98.94,279.1,92.82z M289.02,93.55c0,3.48,0.61,6.15,1.82,8c1.21,1.86,2.97,2.78,5.28,2.78
			c3.06,0,5.22-1.29,6.48-3.88V85.79c-1.23-2.59-3.37-3.88-6.41-3.88C291.41,81.91,289.02,85.79,289.02,93.55z"/>
		<path class="st9" d="M358.48,70.04h-15.3v41.61h-10.29V70.04h-15.09v-8.33h40.68V70.04z"/>
		<path class="st9" d="M355.01,92.75c0-3.68,0.71-6.96,2.13-9.84c1.42-2.88,3.46-5.11,6.12-6.69c2.66-1.58,5.76-2.37,9.28-2.37
			c5.01,0,9.09,1.53,12.26,4.6c3.17,3.06,4.93,7.23,5.3,12.49l0.07,2.54c0,5.69-1.59,10.26-4.77,13.7
			c-3.18,3.44-7.44,5.16-12.79,5.16s-9.62-1.71-12.81-5.14c-3.19-3.43-4.79-8.1-4.79-14V92.75z M364.92,93.45
			c0,3.53,0.66,6.22,1.99,8.09c1.33,1.87,3.22,2.8,5.69,2.8c2.4,0,4.28-0.92,5.62-2.76c1.35-1.84,2.02-4.79,2.02-8.85
			c0-3.46-0.67-6.14-2.02-8.04c-1.35-1.9-3.25-2.85-5.69-2.85c-2.42,0-4.3,0.94-5.63,2.83S364.92,89.49,364.92,93.45z"/>
		<path class="st9" d="M394.73,92.75c0-3.68,0.71-6.96,2.13-9.84c1.42-2.88,3.46-5.11,6.12-6.69c2.66-1.58,5.76-2.37,9.28-2.37
			c5.01,0,9.09,1.53,12.26,4.6c3.17,3.06,4.93,7.23,5.3,12.49l0.07,2.54c0,5.69-1.59,10.26-4.77,13.7
			c-3.18,3.44-7.44,5.16-12.79,5.16s-9.62-1.71-12.81-5.14c-3.19-3.43-4.79-8.1-4.79-14V92.75z M404.64,93.45
			c0,3.53,0.66,6.22,1.99,8.09c1.33,1.87,3.22,2.8,5.69,2.8c2.4,0,4.28-0.92,5.62-2.76c1.35-1.84,2.02-4.79,2.02-8.85
			c0-3.46-0.67-6.14-2.02-8.04c-1.35-1.9-3.25-2.85-5.69-2.85c-2.42,0-4.3,0.94-5.63,2.83S404.64,89.49,404.64,93.45z"/>
		<path class="st9" d="M446.46,111.65h-9.95V58.96h9.95V111.65z"/>
		<path class="st9" d="M474.72,101.39c0-1.21-0.6-2.17-1.8-2.86c-1.2-0.7-3.13-1.32-5.78-1.87c-8.83-1.85-13.24-5.6-13.24-11.25
			c0-3.29,1.37-6.04,4.1-8.25c2.73-2.21,6.3-3.31,10.72-3.31c4.71,0,8.48,1.11,11.3,3.33c2.82,2.22,4.24,5.1,4.24,8.64h-9.91
			c0-1.42-0.46-2.59-1.37-3.52c-0.91-0.93-2.34-1.39-4.29-1.39c-1.67,0-2.96,0.38-3.88,1.13c-0.92,0.75-1.37,1.71-1.37,2.88
			c0,1.1,0.52,1.98,1.56,2.66c1.04,0.67,2.8,1.26,5.27,1.75c2.47,0.49,4.55,1.05,6.24,1.66c5.24,1.92,7.86,5.25,7.86,9.98
			c0,3.38-1.45,6.12-4.36,8.22c-2.9,2.09-6.65,3.14-11.25,3.14c-3.11,0-5.87-0.55-8.28-1.66c-2.41-1.11-4.31-2.63-5.68-4.56
			c-1.37-1.93-2.06-4.02-2.06-6.26h9.4c0.09,1.76,0.74,3.11,1.96,4.05s2.83,1.41,4.87,1.41c1.9,0,3.33-0.36,4.3-1.08
			C474.24,103.5,474.72,102.56,474.72,101.39z"/>
	</g>
	<g>
		
			<linearGradient id="SVGID_00000143582098372677331490000007044950076871796373_" gradientUnits="userSpaceOnUse" x1="518.0164" y1="28.8908" x2="528.9981" y2="83.7997">
			<stop  offset="0" style="stop-color:#6B29FF"/>
			<stop  offset="1" style="stop-color:#B797FF"/>
		</linearGradient>
		<path style="fill:url(#SVGID_00000143582098372677331490000007044950076871796373_);" d="M541.67,68.1h-39.58
			c-9.3,0-16.83-7.54-16.83-16.83v-6.15c0-9.3,7.54-16.83,16.83-16.83h39.58c9.3,0,16.83,7.54,16.83,16.83v6.15
			C558.5,60.56,550.96,68.1,541.67,68.1z"/>
		<g>
			<path class="st7" d="M510.22,53.53c0.55,0,0.97,0.15,1.27,0.46c0.3,0.31,0.45,0.7,0.45,1.16c0,0.46-0.15,0.84-0.45,1.14
				c-0.3,0.3-0.72,0.45-1.27,0.45c-0.52,0-0.94-0.15-1.24-0.45c-0.31-0.3-0.46-0.68-0.46-1.15c0-0.47,0.15-0.85,0.45-1.16
				C509.26,53.69,509.68,53.53,510.22,53.53z"/>
			<path class="st7" d="M525.41,52.53h-6.8l-1.42,4.09h-3.17l6.64-17.57h2.74l6.65,17.57h-3.19L525.41,52.53z M519.46,50.07h5.09
				l-2.55-7.29L519.46,50.07z"/>
			<path class="st7" d="M535.24,56.62h-3.04V39.06h3.04V56.62z"/>
		</g>
	</g>
</g>
</svg>
